<svg data-v-423bf9ae="" xmlns="http://www.w3.org/2000/svg" viewBox="0 0 69.9995442738003 60" class="icon"><!----><!----><!----><!----><g data-v-423bf9ae="" id="5399430e-ae0e-4d5b-a96e-8baaf1f301ea" transform="matrix(0.6999954581260681,0,0,0.6999954581260681,-0.0000017881393432617188,-6.594927981495857e-7)" stroke="none" fill="white"><path d="M95.238 9.523H4.763A4.764 4.764 0 0 1 0 4.763 4.765 4.765 0 0 1 4.763 0h90.475A4.763 4.763 0 0 1 100 4.763a4.763 4.763 0 0 1-4.762 4.76zM9.525 19.048h71.428c2.628 0 4.763 2.133 4.763 4.762s-2.135 4.76-4.763 4.76H9.525a4.762 4.762 0 0 1 0-9.522zM38.095 38.095h52.382a4.763 4.763 0 0 1 4.761 4.76 4.764 4.764 0 0 1-4.761 4.762H38.095a4.762 4.762 0 0 1 0-9.522zM42.857 76.19h14.285a4.763 4.763 0 1 1 0 9.523H42.857a4.765 4.765 0 0 1-4.762-4.762 4.764 4.764 0 0 1 4.762-4.761zM45.239 61.903a4.76 4.76 0 0 1 4.762-4.76h33.333a4.766 4.766 0 0 1 4.763 4.76 4.765 4.765 0 0 1-4.763 4.763H50.001a4.763 4.763 0 0 1-4.762-4.763z"></path></g><!----></svg>